<svg xmlns="http://www.w3.org/2000/svg" viewBox="459 292 76 72" width="152" height="144"><title>BSV Nordstern Radolfzell</title>
<path d="M533.2714 293.2587 L530.0894 334.8347 C527.1754 351.6107 513.7084 362.9407 496.6814 362.9407 C479.6534 362.9407 466.1864 351.6107 463.2724 334.8347 L460.0904 293.2587 C474.2484 295.3207 482.3724 295.9097 496.6814 295.9097 C510.9884 295.9097 519.1134 295.3207 533.2714 293.2587" fill="#000000" fill-rule="nonzero" stroke="none" stroke-width="0" stroke-linejoin="round"/>
<path d="M532.1809 294.2971 L529.0939 334.6341 C526.2669 350.9091 513.2009 361.9021 496.6809 361.9021 C480.1619 361.9021 467.0939 350.9091 464.2669 334.6341 L461.1809 294.2971 C474.9159 296.2981 482.7999 296.8701 496.6809 296.8701 C510.5619 296.8701 518.4449 296.2981 532.1809 294.2971" fill="#ffffff" fill-rule="nonzero" stroke="none" stroke-width="0" stroke-linejoin="round"/>
<path d="M482.6279 318.1301 C484.0119 318.5261 484.7919 319.0001 485.7839 320.0441 C486.8099 321.1261 487.2539 321.9721 487.5599 323.4331 C487.5599 323.4331 493.0309 324.4071 495.7359 325.2021 L487.5599 327.6751 C486.9519 328.7681 486.4869 329.3461 485.5469 330.1721 C484.5509 331.0471 483.8709 331.4541 482.6279 331.9181 L480.5159 339.9971 C479.6669 337.4521 478.3849 331.9181 478.3849 331.9181 C477.1289 331.5451 476.4259 331.1481 475.4569 330.2651 C474.5409 329.4301 474.1029 328.8141 473.6129 327.6751 C473.6129 327.6751 468.1599 326.1041 465.4029 325.3611 C467.9479 324.5131 473.6129 323.4331 473.6129 323.4331 C473.8629 321.9391 474.2949 321.0591 475.3229 319.9471 C476.2059 318.9921 476.8879 318.5481 478.1209 318.1301 L480.4099 310.0891 C481.2059 312.6871 482.6279 318.1301 482.6279 318.1301" fill="#000000" fill-rule="nonzero" stroke="none" stroke-width="0" stroke-linejoin="round"/>
<path d="M482.5455 318.4065 C483.8735 318.7865 484.6235 319.2415 485.5745 320.2435 C486.5605 321.2825 486.9865 322.0955 487.2805 323.4975 C487.2805 323.4975 492.5325 324.4315 495.1285 325.1955 L487.2805 327.5695 C486.6965 328.6195 486.2495 329.1745 485.3485 329.9665 C484.3915 330.8075 483.7395 331.1975 482.5455 331.6425 L480.5185 339.3995 C479.7035 336.9555 478.4725 331.6425 478.4725 331.6425 C477.2655 331.2845 476.5915 330.9045 475.6615 330.0565 C474.7815 329.2545 474.3615 328.6635 473.8905 327.5695 C473.8905 327.5695 468.6555 326.0605 466.0085 325.3485 C468.4525 324.5335 473.8905 323.4975 473.8905 323.4975 C474.1315 322.0625 474.5455 321.2175 475.5335 320.1505 C476.3805 319.2335 477.0355 318.8085 478.2185 318.4065 L480.4165 310.6865 C481.1795 313.1815 482.5455 318.4065 482.5455 318.4065" fill="#1aa037" fill-rule="nonzero" stroke="none" stroke-width="0" stroke-linejoin="round"/>
<path d="M487.8804 324.9708 C487.8804 329.0378 484.5744 332.3448 480.5064 332.3448 C476.4404 332.3448 473.1334 329.0378 473.1334 324.9708 C473.1334 320.9038 476.4404 317.5968 480.5064 317.5968 C484.5744 317.5968 487.8804 320.9038 487.8804 324.9708" fill="#000000" fill-rule="nonzero" stroke="none" stroke-width="0" stroke-linejoin="round"/>
<path d="M487.6659 324.9708 C487.6659 328.9198 484.4549 332.1298 480.5069 332.1298 C476.5589 332.1298 473.3479 328.9198 473.3479 324.9708 C473.3479 321.0218 476.5589 317.8118 480.5069 317.8118 C484.4549 317.8118 487.6659 321.0218 487.6659 324.9708" fill="#000000" fill-rule="nonzero" stroke="none" stroke-width="0" stroke-linejoin="round"/>
<path d="M478.5009 319.3812 C477.7539 319.6302 477.3429 319.8472 476.7159 320.3222 C476.1419 320.7572 475.8469 321.0592 475.4269 321.6422 L474.4239 321.3632 C474.9759 320.4282 475.4129 319.9412 476.2839 319.2922 C477.0889 318.6922 477.6269 318.4282 478.5919 318.1562 L478.5009 319.3812" fill="#ffffff" fill-rule="nonzero" stroke="none" stroke-width="0" stroke-linejoin="round"/>
<path d="M486.7512 321.7106 L485.7652 322.0206 C485.3622 321.3906 485.0752 321.0596 484.5062 320.5726 C483.9612 320.1056 483.6082 319.8796 482.9552 319.5806 L482.7602 318.2516 C483.7392 318.6106 484.2752 318.9256 485.0642 319.6076 C485.8592 320.2946 486.2522 320.7856 486.7512 321.7106" fill="#ffffff" fill-rule="nonzero" stroke="none" stroke-width="0" stroke-linejoin="round"/>
<path d="M480.3567 320.3232 L480.4627 322.8692 L477.9167 324.5132 L475.4777 323.6642 L475.5347 321.6832 C475.9777 321.0812 476.2887 320.7722 476.8947 320.3333 C477.4697 319.9153 477.8387 319.7232 478.5107 319.4902 L480.3567 320.3232" fill="#ffffff" fill-rule="nonzero" stroke="none" stroke-width="0" stroke-linejoin="round"/>
<path d="M485.6262 322.0784 L485.3942 324.1944 L483.4322 324.7244 L480.6482 322.8524 L480.5482 320.3754 L482.9392 319.7444 C483.5922 320.0464 483.9442 320.2774 484.4842 320.7534 C484.9952 321.2044 485.2552 321.5054 485.6262 322.0784" fill="#ffffff" fill-rule="nonzero" stroke="none" stroke-width="0" stroke-linejoin="round"/>
<path d="M478.9247 327.4292 L477.7047 329.3912 L475.7427 328.8082 C475.2637 328.2242 475.0417 327.8352 474.7807 327.1252 C474.5477 326.4902 474.4687 326.1022 474.4337 325.4272 L475.4247 323.8232 L477.8637 324.6712 L478.9247 327.4292" fill="#ffffff" fill-rule="nonzero" stroke="none" stroke-width="0" stroke-linejoin="round"/>
<path d="M486.4150 325.8475 C486.3020 326.4455 486.2030 326.7815 485.9730 327.3465 C485.7270 327.9495 485.5480 328.2805 485.1790 328.8175 L483.3790 329.1265 L482.2670 327.5555 L483.4860 324.9015 L485.4740 324.3545 L486.4150 325.8475" fill="#ffffff" fill-rule="nonzero" stroke="none" stroke-width="0" stroke-linejoin="round"/>
<path d="M474.7254 327.2746 C474.9824 327.9226 475.1904 328.2756 475.6324 328.8146 L475.0334 329.4166 C474.5144 328.7776 474.2694 328.3616 473.9604 327.5986 C473.5884 326.6756 473.4684 326.0946 473.4464 325.1016 L474.3264 325.4106 C474.3604 326.1526 474.4514 326.5836 474.7254 327.2746" fill="#ffffff" fill-rule="nonzero" stroke="none" stroke-width="0" stroke-linejoin="round"/>
<path d="M485.9311 329.4698 L485.2881 328.9138 C485.6581 328.3908 485.8371 328.0678 486.0861 327.4778 C486.3371 326.8828 486.4441 326.5268 486.5611 325.8918 L487.5391 325.6898 C487.4321 326.5438 487.2961 327.0298 486.9441 327.8168 C486.6351 328.5068 486.4051 328.8818 485.9311 329.4698" fill="#ffffff" fill-rule="nonzero" stroke="none" stroke-width="0" stroke-linejoin="round"/>
<path d="M483.2201 329.2322 L482.0461 330.7682 C481.4551 330.9652 481.0961 331.0302 480.4751 331.0522 C479.8431 331.0742 479.4761 331.0332 478.8661 330.8732 L477.8111 329.4982 L479.0231 327.5342 L482.1071 327.6412 L483.2201 329.2322" fill="#ffffff" fill-rule="nonzero" stroke="none" stroke-width="0" stroke-linejoin="round"/>
<path d="M482.4871 331.7461 C481.7321 331.9561 481.2791 332.0181 480.4951 332.0191 C479.7641 332.0211 479.3431 331.9681 478.6341 331.7881 L478.8651 331.0211 C479.4831 331.1781 479.8521 331.2191 480.4891 331.2021 C481.1281 331.1831 481.4971 331.1221 482.1071 330.9291 L482.4871 331.7461" fill="#ffffff" fill-rule="nonzero" stroke="none" stroke-width="0" stroke-linejoin="round"/>
<path d="M465.1519 308.2303 L466.6909 308.2303 L466.6909 305.5053 L466.7039 305.5053 L468.2069 308.2303 L470.7199 308.2303 L470.7199 304.4043 L469.1809 304.4043 L469.1809 306.9683 L469.1629 306.9683 L467.7469 304.4043 L465.1519 304.4043 L465.1519 308.2303" fill="#000000" fill-rule="nonzero" stroke="none" stroke-width="0" stroke-linejoin="round"/>
<path d="M477.0880 306.3168 C477.0880 305.1718 476.3300 304.3028 474.2720 304.3028 C473.1870 304.3028 472.6680 304.4668 472.2660 304.7268 C471.7820 305.0398 471.4560 305.5748 471.4560 306.3168 C471.4560 307.4618 472.2140 308.3308 474.2720 308.3308 C475.3560 308.3308 476.0850 308.0658 476.5400 307.6688 C476.8890 307.3668 477.0880 306.9058 477.0880 306.3168 M475.2810 306.3168 C475.2810 307.1008 474.8550 307.4618 474.2720 307.4618 C473.6890 307.4618 473.2630 307.1008 473.2630 306.3168 C473.2630 305.5328 473.6890 305.1718 474.2720 305.1718 C474.8550 305.1718 475.2810 305.5328 475.2810 306.3168" fill="#000000" fill-rule="evenodd" stroke="none" stroke-width="0" stroke-linejoin="round"/>
<path d="M477.8863 308.2303 L479.6593 308.2303 L479.6593 306.8413 L480.1953 306.8413 C480.8023 306.8413 480.8773 306.9053 480.9593 307.3763 L481.1043 308.2303 L482.8773 308.2303 L482.6503 306.9473 C482.5803 306.5603 482.2423 306.4283 481.8343 306.4173 L481.8343 306.3643 C482.3583 306.2803 482.7433 305.9613 482.7433 305.4583 C482.7433 304.6103 482.0323 304.4043 480.8833 304.4043 L477.8863 304.4043 L477.8863 308.2303 M479.6593 305.1773 L480.3063 305.1773 C480.7373 305.1773 481.0053 305.2943 481.0053 305.6333 C481.0053 305.9933 480.7143 306.1003 480.3353 306.1003 L479.6593 306.1003 L479.6593 305.1773" fill="#000000" fill-rule="evenodd" stroke="none" stroke-width="0" stroke-linejoin="round"/>
<path d="M485.4202 305.2726 L485.9092 305.2726 C486.7142 305.2726 487.1982 305.6017 487.1982 306.3167 C487.1982 307.0327 486.7142 307.3607 485.9092 307.3607 L485.4202 307.3607 L485.4202 305.2726 M483.6482 308.2307 L486.2072 308.2307 C487.5072 308.2307 487.9732 308.0816 488.4692 307.7216 C488.8362 307.4557 489.0402 306.9106 489.0402 306.3486 C489.0402 305.7766 488.8302 305.3156 488.5272 305.0346 C487.9502 304.5046 487.1452 304.4037 485.9032 304.4037 L483.6482 304.4037 L483.6482 308.2307" fill="#000000" fill-rule="evenodd" stroke="none" stroke-width="0" stroke-linejoin="round"/>
<path d="M489.6587 307.0004 C489.6937 307.7104 489.8047 308.3304 492.0897 308.3304 C494.0077 308.3304 494.7427 307.8434 494.7427 307.0854 C494.7427 306.7144 494.5737 306.5074 494.4097 306.3754 C493.8507 305.9194 491.9037 305.7494 491.6297 305.5114 C491.5767 305.4684 491.5537 305.3954 491.5537 305.3364 C491.5537 305.1404 491.7517 305.0134 492.1247 305.0134 C492.3457 305.0134 492.5207 305.0394 492.6437 305.1194 C492.7717 305.1984 492.8477 305.3314 492.8597 305.5434 L494.5967 305.5434 C494.5737 304.7534 494.0307 304.3024 492.2407 304.3024 C490.5567 304.3024 489.7107 304.6794 489.7107 305.5164 C489.7107 305.7334 489.7807 306.0044 490.0077 306.1844 C490.5737 306.6354 492.5857 306.8154 492.8247 307.0594 C492.8707 307.1064 492.9007 307.1644 492.9007 307.2334 C492.9007 307.5414 492.5037 307.6204 492.1357 307.6204 C491.9037 307.6204 491.7457 307.5674 491.6297 307.4674 C491.5187 307.3664 491.4717 307.2124 491.4667 307.0004 L489.6587 307.0004" fill="#000000" fill-rule="nonzero" stroke="none" stroke-width="0" stroke-linejoin="round"/>
<path d="M496.5738 308.2303 L498.3458 308.2303 L498.3458 305.3363 L499.7278 305.3363 L499.7278 304.4043 L495.1918 304.4043 L495.1918 305.3363 L496.5738 305.3363 L496.5738 308.2303" fill="#000000" fill-rule="nonzero" stroke="none" stroke-width="0" stroke-linejoin="round"/>
<path d="M500.3582 308.2303 L504.4162 308.2303 L504.4162 307.4243 L502.0732 307.4243 L502.0732 306.7193 L504.2472 306.7193 L504.2472 305.9143 L502.0732 305.9143 L502.0732 305.2093 L504.3932 305.2093 L504.3932 304.4043 L500.3582 304.4043 L500.3582 308.2303" fill="#000000" fill-rule="nonzero" stroke="none" stroke-width="0" stroke-linejoin="round"/>
<path d="M505.2570 308.2303 L507.0290 308.2303 L507.0290 306.8413 L507.5660 306.8413 C508.1720 306.8413 508.2480 306.9053 508.3300 307.3763 L508.4750 308.2303 L510.2480 308.2303 L510.0200 306.9473 C509.9500 306.5603 509.6120 306.4283 509.2040 306.4173 L509.2040 306.3643 C509.7290 306.2803 510.1130 305.9613 510.1130 305.4583 C510.1130 304.6103 509.4020 304.4043 508.2540 304.4043 L505.2570 304.4043 L505.2570 308.2303 M507.0290 305.1773 L507.6760 305.1773 C508.1080 305.1773 508.3760 305.2943 508.3760 305.6333 C508.3760 305.9933 508.0850 306.1003 507.7060 306.1003 L507.0290 306.1003 L507.0290 305.1773" fill="#000000" fill-rule="evenodd" stroke="none" stroke-width="0" stroke-linejoin="round"/>
<path d="M510.9542 308.2303 L512.4932 308.2303 L512.4932 305.5053 L512.5042 305.5053 L514.0092 308.2303 L516.5212 308.2303 L516.5212 304.4043 L514.9822 304.4043 L514.9822 306.9683 L514.9642 306.9683 L513.5482 304.4043 L510.9542 304.4043 L510.9542 308.2303" fill="#000000" fill-rule="nonzero" stroke="none" stroke-width="0" stroke-linejoin="round"/>
<path d="M466.9893 299.2804 L467.5073 299.2804 C468.0613 299.2804 468.1903 299.4284 468.1903 299.6994 C468.1903 299.9534 468.0263 300.1184 467.5143 300.1184 L466.9893 300.1184 L466.9893 299.2804 M465.2163 302.3974 L468.3183 302.3974 C469.2273 302.3974 469.5013 302.3114 469.7763 302.1004 C469.9623 301.9564 470.0853 301.7074 470.0853 301.4114 C470.0853 300.7534 469.5133 300.4944 468.9193 300.4624 L468.9193 300.4514 C469.4723 300.3304 469.9033 300.0854 469.9033 299.5664 C469.9033 298.9204 469.3673 298.5704 468.0913 298.5704 L465.2163 298.5704 L465.2163 302.3974 M466.9893 300.7964 L467.5143 300.7964 C468.1263 300.7964 468.3473 300.9394 468.3473 301.2574 C468.3473 301.5754 468.1263 301.7184 467.5143 301.7184 L466.9893 301.7184 L466.9893 300.7964" fill="#000000" fill-rule="evenodd" stroke="none" stroke-width="0" stroke-linejoin="round"/>
<path d="M470.6520 301.1670 C470.6880 301.8770 470.7980 302.4980 473.0830 302.4980 C475.0020 302.4980 475.7360 302.0100 475.7360 301.2520 C475.7360 300.8810 475.5670 300.6740 475.4040 300.5420 C474.8440 300.0860 472.8970 299.9170 472.6230 299.6780 C472.5710 299.6350 472.5470 299.5620 472.5470 299.5030 C472.5470 299.3070 472.7450 299.1800 473.1180 299.1800 C473.3400 299.1800 473.5140 299.2060 473.6370 299.2860 C473.7660 299.3650 473.8420 299.4980 473.8530 299.7100 L475.5900 299.7100 C475.5670 298.9200 475.0250 298.4690 473.2350 298.4690 C471.5500 298.4690 470.7050 298.8460 470.7050 299.6830 C470.7050 299.9000 470.7750 300.1710 471.0020 300.3510 C471.5680 300.8020 473.5790 300.9820 473.8180 301.2250 C473.8640 301.2730 473.8940 301.3310 473.8940 301.4000 C473.8940 301.7080 473.4970 301.7870 473.1300 301.7870 C472.8970 301.7870 472.7390 301.7340 472.6230 301.6340 C472.5120 301.5330 472.4650 301.3790 472.4600 301.1670 L470.6520 301.1670" fill="#000000" fill-rule="nonzero" stroke="none" stroke-width="0" stroke-linejoin="round"/>
<path d="M477.9405 302.3969 L480.1095 302.3969 L481.9695 298.5709 L480.1615 298.5709 L479.0835 300.9869 L478.0345 298.5709 L476.0805 298.5709 L477.9405 302.3969" fill="#000000" fill-rule="nonzero" stroke="none" stroke-width="0" stroke-linejoin="round"/>
<path d="M491.4238 353.3858 L492.6768 352.1328 L491.6948 351.1508 L492.0738 350.7708 C492.5028 350.3428 492.6018 350.3338 492.9928 350.6098 L493.6988 351.1098 L494.9518 349.8568 L493.8848 349.1108 C493.5618 348.8868 493.2288 349.0318 492.9328 349.3128 L492.8958 349.2758 C493.2068 348.8448 493.2528 348.3478 492.8978 347.9918 C492.2978 347.3918 491.6488 347.7488 490.8368 348.5608 L488.7178 350.6798 L491.4238 353.3858 M490.5178 349.9738 L490.9758 349.5168 C491.2808 349.2118 491.5528 349.1038 491.7928 349.3438 C492.0478 349.5988 491.9168 349.8798 491.6488 350.1478 L491.1708 350.6258 L490.5178 349.9738" fill="#000000" fill-rule="evenodd" stroke="none" stroke-width="0" stroke-linejoin="round"/>
<path d="M495.5943 346.5394 C495.4983 346.4024 495.4843 346.2154 495.7633 345.9344 C496.0323 345.6664 496.2613 345.7224 496.4183 345.8794 L496.5233 345.9844 L496.1893 346.3184 C495.3273 347.1804 494.6663 348.0594 495.2283 348.6224 C495.4793 348.8734 495.8133 348.8534 496.0953 348.7144 C496.3283 348.6014 496.5993 348.3524 496.8593 348.0934 C497.2833 347.6684 497.5263 347.2674 497.4953 346.7744 L497.7843 347.0244 L498.8653 345.9444 C498.7393 345.8594 498.6563 345.7934 498.5853 345.7214 L497.6893 344.8254 C497.0903 344.2264 496.3973 344.5064 495.3123 345.5914 C494.9953 345.9084 494.6753 346.2884 494.4923 346.6584 C494.3103 347.0284 494.2663 347.3804 494.4933 347.6404 L495.5943 346.5394 M496.8833 346.3444 L496.9433 346.4044 C497.1683 346.6294 497.1583 346.9984 496.8573 347.3004 C496.6473 347.5094 496.4393 347.5084 496.3303 347.3994 C496.1723 347.2424 496.2603 346.9674 496.7303 346.4974 L496.8833 346.3444" fill="#000000" fill-rule="evenodd" stroke="none" stroke-width="0" stroke-linejoin="round"/>
<path d="M500.0438 342.8841 C499.7438 342.5841 499.6458 342.2631 499.9338 341.9741 C500.1858 341.7231 500.5438 341.7771 500.8478 342.0801 C501.0948 342.3281 501.2918 342.6561 500.9578 342.9891 C500.6198 343.3281 500.2918 343.1321 500.0438 342.8841 M501.8298 342.9791 L502.9758 341.8331 L500.2698 339.1271 L499.0588 340.3401 L500.1108 341.3931 C499.6708 341.4061 499.2468 341.6581 498.9248 341.9791 C498.1958 342.7091 498.1418 343.4891 498.7978 344.1451 C499.4508 344.7971 500.2438 344.7081 501.0018 343.9491 C501.3408 343.6111 501.5258 343.2611 501.5508 342.7331 L501.8298 342.9791" fill="#000000" fill-rule="evenodd" stroke="none" stroke-width="0" stroke-linejoin="round"/>
<path d="M502.9471 339.9808 C503.7121 340.7458 504.6061 340.3448 505.6041 339.3478 C506.6021 338.3498 507.0011 337.4558 506.2371 336.6908 C505.4731 335.9268 504.5781 336.3258 503.5801 337.3238 C502.5831 338.3208 502.1831 339.2158 502.9471 339.9808 M504.2001 338.7278 C503.9121 338.4388 503.7671 338.0958 504.0601 337.8038 C504.3521 337.5108 504.6951 337.6558 504.9831 337.9448 C505.2721 338.2328 505.4171 338.5758 505.1241 338.8678 C504.8311 339.1608 504.4891 339.0158 504.2001 338.7278" fill="#000000" fill-rule="evenodd" stroke="none" stroke-width="0" stroke-linejoin="round"/>
<path d="M505.3834 334.0141 L508.0894 336.7201 L509.3014 335.5081 L506.5954 332.8021 L505.3834 334.0141" fill="#000000" fill-rule="nonzero" stroke="none" stroke-width="0" stroke-linejoin="round"/>
<path d="M510.4468 334.3623 L511.6598 333.1503 L510.3028 331.7933 L510.8918 331.2033 L510.3678 330.6793 L509.7778 331.2683 L509.6888 331.1783 C509.4968 330.9873 509.5468 330.7573 509.7858 330.5183 C509.8898 330.4153 509.9628 330.3493 510.0558 330.2933 L509.5648 329.8033 C509.2968 329.9953 509.0138 330.2413 508.7908 330.4633 C507.8808 331.3743 507.9698 331.8843 508.4758 332.3903 L508.5658 332.4813 L508.2198 332.8263 L508.7438 333.3523 L509.0898 333.0053 L510.4468 334.3623" fill="#000000" fill-rule="nonzero" stroke="none" stroke-width="0" stroke-linejoin="round"/>
<path d="M512.8475 331.9615 L515.6584 329.1505 L515.1115 328.6035 L513.8665 329.8485 L513.8595 329.8405 L514.1835 327.8225 L513.7045 327.3425 L511.0695 329.9775 L511.5945 330.5015 L512.5625 329.5335 L512.3675 331.4815 L512.8475 331.9615" fill="#000000" fill-rule="nonzero" stroke="none" stroke-width="0" stroke-linejoin="round"/>
<path d="M518.8021 324.4263 L518.7001 324.3253 C517.8691 323.4933 516.8401 324.0643 516.0481 324.8553 C515.1331 325.7713 514.7491 326.7393 515.4801 327.4703 C516.1931 328.1823 517.1361 327.8153 518.1051 326.8463 C519.1721 325.7783 519.2981 325.0543 519.0201 324.7023 L517.8322 325.8893 C517.9201 326.0433 517.9221 326.2353 517.6871 326.4693 C517.4111 326.7463 517.1251 326.7403 516.8062 326.4213 L518.8021 324.4263 M516.4461 326.0613 C516.1991 325.8143 516.1861 325.5123 516.4461 325.2533 C516.7221 324.9773 517.0111 325.0103 517.2551 325.2533 L516.4461 326.0613" fill="#000000" fill-rule="evenodd" stroke="none" stroke-width="0" stroke-linejoin="round"/>
<path d="M517.7241 321.6726 L520.4301 324.3786 L521.6422 323.1666 L518.9371 320.4606 L517.7241 321.6726" fill="#000000" fill-rule="nonzero" stroke="none" stroke-width="0" stroke-linejoin="round"/>
<path d="M519.9666 319.4306 L522.6726 322.1366 L523.8846 320.9246 L521.1796 318.2186 L519.9666 319.4306" fill="#000000" fill-rule="nonzero" stroke="none" stroke-width="0" stroke-linejoin="round"/>
<path d="M474.6442 353.8149 L532.1112 296.2649 L531.5132 304.0269 L478.6912 356.8619 C478.6912 356.8619 477.3372 355.9979 476.5202 355.3779 C475.7622 354.8029 474.6442 353.8149 474.6442 353.8149" fill="#1aa037" fill-rule="nonzero" stroke="none" stroke-width="0" stroke-linejoin="round"/>
<path d="M479.8760 357.5814 L531.3290 306.0634 L531.2630 306.8464 L480.3100 357.8204 L479.8760 357.5814" fill="#1aa037" fill-rule="evenodd" stroke="none" stroke-width="0" stroke-linejoin="round"/>
<path d="M485.9401 360.2541 L530.6141 315.5111 L530.5561 316.2871 L486.4751 360.4171 L485.9401 360.2541" fill="#1aa037" fill-rule="nonzero" stroke="none" stroke-width="0" stroke-linejoin="round"/>
<path d="M488.0483 360.8589 L530.3933 318.4659 L530.3263 319.1589 L488.5943 360.9899 L488.0483 360.8589" fill="#1aa037" fill-rule="nonzero" stroke="none" stroke-width="0" stroke-linejoin="round"/>
<path d="M490.1526 361.3468 L530.1576 321.3698 L530.1096 322.0438 L490.7266 361.4478 L490.1526 361.3468" fill="#1aa037" fill-rule="nonzero" stroke="none" stroke-width="0" stroke-linejoin="round"/>
<path d="M492.4653 361.6840 L529.9543 324.1440 L529.9043 324.8700 L493.0563 361.7510 L492.4653 361.6840" fill="#1aa037" fill-rule="nonzero" stroke="none" stroke-width="0" stroke-linejoin="round"/>
<path d="M494.9182 361.8869 L529.7192 327.0359 L529.6842 327.7279 L495.5262 361.9209 L494.9182 361.8869" fill="#1aa037" fill-rule="nonzero" stroke="none" stroke-width="0" stroke-linejoin="round"/>
<path d="M497.5686 361.9375 L529.4816 329.9725 L529.4316 330.7205 L498.2606 361.9035 L497.5686 361.9375" fill="#1aa037" fill-rule="nonzero" stroke="none" stroke-width="0" stroke-linejoin="round"/>
<path d="M500.3763 361.7515 L529.3133 332.7975 L529.2123 333.6075 L501.1363 361.6675 L500.3763 361.7515" fill="#1aa037" fill-rule="nonzero" stroke="none" stroke-width="0" stroke-linejoin="round"/>
<path d="M503.7241 361.2451 L528.8581 336.0781 L528.6551 336.9721 L504.5511 361.0761 L503.7241 361.2451" fill="#1aa037" fill-rule="nonzero" stroke="none" stroke-width="0" stroke-linejoin="round"/>
<path d="M507.4597 360.2780 L527.7887 339.9150 L527.4007 340.9610 L508.5067 359.9070 L507.4597 360.2780" fill="#1aa037" fill-rule="evenodd" stroke="none" stroke-width="0" stroke-linejoin="round"/>
<path d="M512.7491 358.0159 L525.4591 345.2379 L524.4971 346.9259 L514.3361 357.0699 L512.7491 358.0159" fill="#1aa037" fill-rule="evenodd" stroke="none" stroke-width="0" stroke-linejoin="round"/>
<path d="M532.7242 293.7798 L529.5912 334.7338 C526.7192 351.2598 513.4532 362.4198 496.6812 362.4198 C479.9092 362.4198 466.6422 351.2598 463.7712 334.7338 L460.6372 293.7798 C474.5842 295.8118 482.5882 296.3918 496.6812 296.3918 C510.7742 296.3918 518.7782 295.8118 532.7242 293.7798" fill="none" fill-rule="nonzero" stroke="#000000" stroke-width="1.0609999895095825" stroke-linejoin="round"/>
</svg>
